<?xml version="1.0" encoding="utf-8"?>
<!-- Generator: Adobe Illustrator 27.2.0, SVG Export Plug-In . SVG Version: 6.00 Build 0)  -->
<svg version="1.1" id="Слой_1" xmlns="http://www.w3.org/2000/svg" xmlns:xlink="http://www.w3.org/1999/xlink" x="0px" y="0px"
	 viewBox="0 0 160 160" style="enable-background:new 0 0 160 160;" xml:space="preserve">
<style type="text/css">
	.st0{fill:#F6A505;}
	.st1{fill:#6292C7;}
	.st2{fill:#C2C2C3;}
	.st3{fill:#FFFFFF;}
	.st4{fill:#FFFFFF;stroke:#000000;stroke-width:1.4173;stroke-miterlimit:10;}
</style>
<circle class="st0" cx="58.3" cy="29.2" r="17.8"/>
<g>
	<path class="st1" d="M85.1,53.2c0,0.3,0,0.7,0,1c-0.7,1.7-1.6,3.2-2.8,4.6c-2.8,2.9-5.7,5.7-8.9,8.1c-5,3.9-9.8,8-14.4,12.3
		c-0.5,0.4-0.9,0.6-1.5,0.6c-1.9-0.1-3.8-0.2-5.7-0.2c-2.4-0.2-4.7,0-7.2,0.2c-2.3,0.2-4.3,0.8-6.3,2c-2.4,1.5-4.1,3.6-5.8,5.8
		c-2.1,2.8-4.2,5.5-5.3,8.9c-0.7,2.4,0.2,4.1,2.6,5c0.9,0.4,2,0,3.1,0.5c-1.5,1-2.4,2.5-3.5,3.7c-0.9,0.9-1.4,2-1.8,3.2
		c-0.5,1.4,0,2.4,1,3.1c2,1.7,4.6,1.8,6.9,1.9c1.8,0.1,3.7-0.2,5.4-0.9c0.3-0.1,0.6-0.2,0.8,0.4c0.8,2.5,2.4,3.8,4.8,4
		c5,0.5,8.5-2.2,11.7-5.5c0.3-0.3,0.8-0.9,0.3-1.4s-1,0-1.5,0.2c-0.9,0.6-1.6,1.3-2.4,1.9c-2.2,1.5-4.5,2.6-7.2,2.3
		c-1.2-0.1-2.4-0.5-3-1.7s0.5-2,1.1-2.8c0.9-1.2,2-2.1,3.1-3.1c3.1-2.7,6.3-4.6,10.8-3.9c4.1,0.6,8,1.5,11.8,3.2
		c3.1,1.4,3.6,3.2,2.1,6.4c-1.6,3.4-4,6.2-6.6,8.8c-2.7,2.6-5.5,5.1-8.6,7.2c-3.5,2.4-7.3,5-13.1,6.4c-1.1,0.3-2,0.5-2.7,0.6
		c-0.6,0-1.3,0.1-1.9,0.1c-0.4,0-0.9,0-1.6-0.1c0,0-0.6-0.2-1-0.2c-6.8-1.6-13.8-7.6-13.8-7.6c-4.2-3.5-7.8-7.7-10.1-12.8
		c-1.8-4-2.6-8.1-1.4-12.5c1.1-4.3,3.1-8.3,4.3-12.6c0.9-3.1,1.9-6.3,2.1-9.6c0.3-3.5-0.4-6.8-1.4-10.1c-1.3-4.3-3.1-8.3-6.1-11.9
		c-2.1-2.6-1.2-5.3,2-6.3c2.8-0.9,5.3-0.2,7.7,1.1c4.6,2.4,7.4,6.3,9.3,10.9c2,4.9,3.1,9.9,3.1,15.1c0,0.2-0.1,0.6,0.2,0.6
		c0.2,0,0.4-0.2,0.6-0.3c3.3-2.6,6.7-5.3,10-7.9C50,67.4,55.9,63.1,61.9,59c4-2.8,8-5.4,12.7-7.2c1.7-0.6,3.5-0.9,5.1-1.3
		c0.5,0,0.9,0,1.3,0C82.8,50.9,84.3,51.6,85.1,53.2z"/>
	<path class="st1" d="M71.8,100.1c-0.1,0.9-0.2,1.7-0.2,2.4c-0.1,1.2-0.5,1.1-1.3,0.8c-3.7-1.3-7.5-1.9-11.3-2.4
		c-4.3-0.6-7.5,1-10.6,3.7c-1.6,1.3-3.1,2.8-4.6,4.1c-2,1.6-4.4,2.3-6.9,2.5c-1.4,0.2-2.9,0.2-4.4-0.2c-1.7-0.5-2.1-1.4-1.2-2.8
		c1.3-2,3-3.8,4.8-5.4c1.9-1.7,3.9-3.4,5.8-5.1c1.2-1,2.3-2,3.6-2.9c1.7-1,3.5-1.3,5.4-1.4c5.8-0.3,11.6,0.2,17.1,2
		C70.7,96.2,72.1,97.6,71.8,100.1z"/>
	<path class="st1" d="M48.9,82.5c4.2-0.1,8.5,0.4,12.7,1c3.4,0.6,4.3,3,3.8,5.8c-0.4,2.2-0.6,2.2-3.5,1.7c-4.8-0.9-9.6-1.1-14.4-0.2
		c-2.2,0.5-4,1.7-5.7,3.1c-2,1.7-4,3.4-6.1,5c-1.1,0.9-4.6,0.6-5.7-0.2c-0.9-0.8-0.6-1.7-0.2-2.6c1.1-2.4,2.8-4.6,4.4-6.8
		c1.2-1.7,2.5-3.1,4.1-4.5c2.1-1.8,4.7-2.3,7.4-2.4C47,82.4,47.9,82.5,48.9,82.5z"/>
</g>
<path class="st2" d="M32.7,42c-0.7-0.2-1.3-0.6-1.8-1c-3.1-2.1-6.1-4.1-9.4-6c-2.4-1.4-4.7-2.8-7.1-4.2c-3.2-1.9-6.5-3.7-9.8-5.6
	c-1.4-0.8-2.8-1.7-3.7-3.1c-0.3-0.5-0.2-1-0.2-1.5c0.1-0.3,0.4-0.5,0.7-0.5C2.3,20,3,20.4,3.7,20.9c3.3,2.3,6.6,4.6,9.9,6.9
	c3.6,2.6,7.2,5.3,10.9,7.9c2.5,1.8,5,3.7,7.5,5.5C32.3,41.4,32.5,41.6,32.7,42z"/>
<path class="st2" d="M19.6,41.2c-0.6,0.2-1.3-0.1-2-0.2c-3.5-0.7-7.1-1.3-10.6-1.8c-1.7-0.2-3.5-0.6-5.2-0.9c-0.6-0.1-1-0.4-1.5-0.7
	C0.1,37.4-0.1,37,0,36.7S0.4,36,0.7,36c0.5,0,0.9-0.1,1.3,0.1c4.2,1.4,8.5,2.5,12.8,3.6c1.4,0.4,2.8,0.7,4.2,1
	C19.3,40.8,19.5,40.9,19.6,41.2z"/>
<path class="st2" d="M20.8,16c0-0.5-0.1-0.9,0.4-1.1c0.5-0.2,0.8,0.1,1.1,0.3c0.9,0.8,1.2,1.9,1.7,2.8c1.2,2.2,2.4,4.4,3.6,6.5
	c1.1,1.9,2.2,3.8,3.3,5.7c0.2,0.2,0.3,0.5,0,0.6c-0.2,0.2-0.3-0.2-0.5-0.3c-1.8-2.5-3.5-5-5.3-7.6c-1.3-1.8-2.7-3.5-3.9-5.4
	C21,17,20.7,16.5,20.8,16z"/>
<path class="st3" d="M64.6,29.7c3.1-2.9,2.8-6.1-0.7-8.8c0.2-0.5,0.3-0.9,0.5-1.5c0.2-0.9-0.1-1.6-0.9-1.8c-0.7-0.2-1.4,0.2-1.7,1
	c-0.2,0.6-0.3,1-0.5,1.5c-0.6-0.2-1.2-0.4-1.7-0.6c0.2-0.6,0.3-1,0.5-1.5c0.2-0.9-0.1-1.7-0.9-1.9s-1.4,0.2-1.7,1.1
	c-0.2,0.5-0.3,1-0.5,1.5c-0.6-0.2-1-0.3-1.5-0.5c-0.8-0.2-1.5,0.1-1.7,0.9c-0.2,0.7,0.2,1.4,0.9,1.7c0.5,0.2,1,0.3,1.5,0.5
	c-1.3,4-2.4,7.9-3.6,11.9c-0.6-0.2-1-0.3-1.5-0.5c-0.8-0.2-1.5,0.1-1.7,0.9c-0.2,0.7,0.2,1.4,0.9,1.7c0.5,0.2,1,0.3,1.4,0.5
	c0,0.1,0,0.2,0,0.2c-0.2,0.6-0.3,1.1-0.5,1.7c-0.2,0.8,0.2,1.5,0.9,1.7s1.4-0.2,1.7-0.9c0.2-0.6,0.4-1.2,0.6-1.7
	c0.6,0.2,1.2,0.4,1.7,0.6c-0.2,0.6-0.4,1.2-0.6,1.8c-0.2,0.8,0.2,1.5,0.9,1.7s1.4-0.2,1.7-0.9c0.2-0.6,0.4-1.2,0.6-1.8
	c2.6,0.9,4.9,0.6,6.4-1.7C66.7,34,66.4,31.7,64.6,29.7z M58.9,22.3c1.3,0.4,2.8,0.7,4.1,1.3c1,0.5,1.3,1.7,0.9,2.8
	c-0.4,1-1.5,1.7-2.6,1.5c-1.3-0.3-2.6-0.8-3.9-1.2C57.9,25.3,58.4,23.8,58.9,22.3z M60.4,35.7c-1.7-0.5-3.4-1-5.2-1.6
	c0.5-1.6,0.9-3,1.4-4.6c0.4,0.2,0.8,0.2,1.2,0.4c1.3,0.4,2.7,0.8,3.9,1.3c1.3,0.4,2,1.7,1.6,3C63,35.4,61.6,36.1,60.4,35.7z"/>
<g>
	<rect x="87.2" y="61.3" width="64.7" height="66.3"/>
	<rect x="97.9" y="58.2" class="st4" width="9.9" height="4"/>
	<rect x="88" y="58.2" class="st4" width="9.9" height="4"/>
	<rect x="117.7" y="58.2" class="st4" width="9.9" height="4"/>
	<rect x="107.8" y="58.2" class="st4" width="9.9" height="4"/>
	<rect x="137.4" y="58.1" class="st4" width="9.9" height="4"/>
	<rect x="127.5" y="58.1" class="st4" width="9.9" height="4"/>
	<rect x="147.4" y="58.1" class="st4" width="9.9" height="4"/>
	<rect x="136.2" y="62.2" class="st4" width="9.9" height="4"/>
	<rect x="146.1" y="62.2" class="st4" width="9.9" height="4"/>
	<rect x="144.2" y="66.3" class="st4" width="9.9" height="4"/>
	<rect x="148.5" y="70.4" class="st4" width="9.9" height="4"/>
	<rect x="148.8" y="94.8" class="st4" width="9.9" height="4"/>
	<rect x="146.2" y="98.9" class="st4" width="9.9" height="4"/>
	<rect x="144.2" y="103" class="st4" width="9.9" height="4"/>
	<rect x="138.9" y="107.1" class="st4" width="9.9" height="4"/>
	<rect x="148.8" y="107.1" class="st4" width="9.9" height="4"/>
	<rect x="135.7" y="111.1" class="st4" width="9.9" height="4"/>
	<rect x="145.6" y="111.1" class="st4" width="9.9" height="4"/>
	<rect x="137.1" y="115.2" class="st4" width="9.9" height="4"/>
	<rect x="147.1" y="115.2" class="st4" width="9.9" height="4"/>
	<rect x="144.2" y="119.3" class="st4" width="9.9" height="4"/>
	<rect x="134.3" y="119.3" class="st4" width="9.9" height="4"/>
	<rect x="124.4" y="119.3" class="st4" width="9.9" height="4"/>
	<rect x="94.7" y="119.3" class="st4" width="9.9" height="4"/>
	<rect x="84.8" y="119.3" class="st4" width="9.9" height="4"/>
	<rect x="75" y="119.3" class="st4" width="9.9" height="4"/>
	<rect x="92.2" y="115.2" class="st4" width="9.9" height="4"/>
	<rect x="82.3" y="115.2" class="st4" width="9.9" height="4"/>
	<rect x="77.6" y="111.2" class="st4" width="9.9" height="4"/>
	<rect x="79.4" y="107.1" class="st4" width="9.9" height="4"/>
	<rect x="82" y="103.1" class="st4" width="9.9" height="4"/>
	<rect x="80.5" y="99" class="st4" width="9.9" height="4"/>
	<rect x="95.4" y="62.2" class="st4" width="9.9" height="4"/>
	<rect x="85.5" y="62.2" class="st4" width="9.9" height="4"/>
	<rect x="92.8" y="66.3" class="st4" width="9.9" height="4"/>
	<rect x="82.9" y="66.3" class="st4" width="9.9" height="4"/>
	<rect x="87.5" y="70.3" class="st4" width="9.9" height="4"/>
	<rect x="77.6" y="70.3" class="st4" width="9.9" height="4"/>
	<rect x="85.1" y="74.4" class="st4" width="9.9" height="4"/>
	<rect x="75.2" y="74.4" class="st4" width="9.9" height="4"/>
	<rect x="83.6" y="78.5" class="st4" width="9.9" height="4"/>
	<rect x="73.7" y="78.5" class="st4" width="9.9" height="4"/>
	<rect x="80.2" y="86.6" class="st4" width="9.9" height="4"/>
	<rect x="77.6" y="82.5" class="st4" width="9.9" height="4"/>
	<rect x="78.7" y="90.7" class="st4" width="9.9" height="4"/>
	<rect x="81.3" y="95" class="st4" width="9.9" height="4"/>
	<rect x="149.1" y="123.5" class="st4" width="9.9" height="4"/>
	<rect x="139.2" y="123.6" class="st4" width="9.9" height="4"/>
	<rect x="129.4" y="123.5" class="st4" width="9.9" height="4"/>
	<rect x="89.8" y="123.5" class="st4" width="9.9" height="4"/>
	<rect x="79.9" y="123.6" class="st4" width="9.9" height="4"/>
	<rect x="142.1" y="127.6" class="st4" width="9.9" height="4"/>
	<rect x="132.2" y="127.7" class="st4" width="9.9" height="4"/>
	<rect x="102.5" y="127.6" class="st4" width="9.9" height="4"/>
	<rect x="122.3" y="127.6" class="st4" width="9.9" height="4"/>
	<rect x="112.4" y="127.6" class="st4" width="9.9" height="4"/>
	<rect x="92.6" y="127.7" class="st4" width="9.9" height="4"/>
	<rect x="82.7" y="127.6" class="st4" width="9.9" height="4"/>
	<rect x="138.8" y="131.7" class="st4" width="9.9" height="4"/>
	<rect x="109.1" y="131.7" class="st4" width="9.9" height="4"/>
	<rect x="128.9" y="131.7" class="st4" width="9.9" height="4"/>
	<rect x="119" y="131.7" class="st4" width="9.9" height="4"/>
	<rect x="99.2" y="131.8" class="st4" width="9.9" height="4"/>
	<rect x="141.9" y="54.1" class="st4" width="9.9" height="4"/>
	<rect x="112.2" y="54" class="st4" width="9.9" height="4"/>
	<rect x="132" y="54" class="st4" width="9.9" height="4"/>
	<rect x="122.2" y="54" class="st4" width="9.9" height="4"/>
	<rect x="102.4" y="54.1" class="st4" width="9.9" height="4"/>
	<rect x="92.5" y="54" class="st4" width="9.9" height="4"/>
	<rect x="89.3" y="131.7" class="st4" width="9.9" height="4"/>
</g>
<g>
	
		<ellipse transform="matrix(5.881207e-03 -1 1 5.881207e-03 35.4285 223.9719)" class="st3" cx="130.4" cy="94.2" rx="33.4" ry="29.3"/>
	
		<ellipse transform="matrix(5.878368e-03 -1 1 5.878368e-03 32.4548 221.7507)" class="st0" cx="127.8" cy="94.6" rx="33" ry="29.3"/>
	
		<ellipse transform="matrix(1.082916e-02 -0.9999 0.9999 1.082916e-02 30.3608 217.2036)" class="st0" cx="125" cy="93.3" rx="32.1" ry="26.5"/>
	<path d="M148.6,118c1.2-1.5,2.4-3.1,3.4-4.7c0.1-0.1,0.2-0.2,0.2-0.4c1.5-2.6,2.8-5.4,3.7-8.4c1.4-4.8,1.9-9.7,1.6-14.3
		c0,0,0-0.1,0-0.1c-0.2-2.8-0.7-5.4-1.5-8c0-0.1,0-0.1-0.1-0.2c-0.8-2.5-1.8-4.9-3.1-7.1c0-0.1-0.1-0.1-0.1-0.2
		c-3.1-5.1-7.4-9-12.9-10.9c-1-0.3-2-0.6-3.1-0.8c-0.9-0.5-1.9-0.9-2.9-1.3c-6.2-2.2-13-1.6-19.2,1.9c-7.3,4.1-13.1,11.6-15.8,20.7
		c-5.2,17.5,1.9,35.8,16,40.8c1,0.4,2,0.6,3,0.8c1,0.5,2,1,3,1.3c6.2,2.2,13,1.6,19.2-1.9C143.2,123.4,146,121,148.6,118
		C148.5,118.1,148.5,118,148.6,118z M141.9,121.3l-3.5-1.3c1.3-1.1,2.5-2.2,3.7-3.5l3.8,1.3C144.6,119.1,143.3,120.2,141.9,121.3z
		 M153.2,80.5l-3.4-1.2c-0.1-0.2-0.1-0.4-0.2-0.6c-0.2-0.5-0.4-1-0.6-1.5c-0.1-0.3-0.2-0.6-0.4-0.9c-0.1-0.3-0.3-0.6-0.4-0.9
		c-0.1-0.1-0.1-0.2-0.2-0.4l3,1.1C151.9,77.5,152.6,79,153.2,80.5z M155.1,88.5l-3.8-1.4c0-0.4-0.1-0.9-0.1-1.3
		c0-0.2-0.1-0.4-0.1-0.6c-0.1-0.5-0.2-1-0.2-1.5c0-0.2-0.1-0.4-0.1-0.6c-0.1-0.4-0.2-0.8-0.3-1.2l3.6,1.3
		C154.6,84.9,154.9,86.7,155.1,88.5z M151.5,92.6c0-0.7,0-1.4,0-2.2c0-0.2,0-0.3,0-0.5c0-0.1,0-0.3,0-0.4l3.9,1.4
		c0.1,1.2,0.1,2.4,0,3.6l-3.9-1.4c0-0.1,0-0.3,0-0.4C151.5,92.7,151.5,92.7,151.5,92.6z M150.9,97.4c0.1-0.6,0.2-1.3,0.3-1.9l4,1.4
		c-0.1,1.1-0.3,2.3-0.5,3.4l-4-1.4c0.1-0.5,0.2-0.9,0.3-1.4C150.9,97.5,150.9,97.5,150.9,97.4z M150.7,111.1l-4-1.4
		c0.5-1,1-2,1.5-3.1l4,1.4C151.8,109.1,151.3,110.1,150.7,111.1z M143.6,114.6c0.7-0.9,1.4-1.9,2-2.9l3.9,1.4c-0.7,1-1.4,2-2.1,2.9
		L143.6,114.6z M153.1,105.9l-4-1.4c0.3-0.7,0.5-1.4,0.7-2.2c0.1-0.4,0.2-0.7,0.3-1.1l4,1.4c-0.1,0.4-0.2,0.7-0.3,1.1
		C153.6,104.5,153.3,105.2,153.1,105.9z M143.2,67.8c2.1,1.3,4,3.1,5.6,5.1l-2.4-0.9c-0.1-0.2-0.2-0.3-0.3-0.4
		c-0.2-0.2-0.3-0.5-0.5-0.7c-0.3-0.4-0.6-0.9-0.9-1.3c-0.1-0.2-0.3-0.4-0.4-0.5c-0.3-0.3-0.5-0.6-0.8-0.9
		C143.4,68,143.3,67.9,143.2,67.8z M100.7,84.8c2.6-8.5,7.9-15.6,14.8-19.4c5.7-3.1,11.9-3.8,17.6-1.7c0.8,0.3,1.6,0.6,2.3,1
		l0.4,0.2c0,0,0.1,0,0.1,0.1c0.7,0.4,1.4,0.8,2,1.2c0,0,0,0,0,0c0.6,0.4,1.2,0.9,1.8,1.4c0,0,0.1,0,0.1,0.1c0.6,0.5,1.1,1,1.6,1.5
		c0,0,0.1,0.1,0.1,0.1c0.5,0.5,0.9,1,1.3,1.5c0.1,0.1,0.2,0.2,0.3,0.4c0.4,0.5,0.7,1,1.1,1.5c0.1,0.2,0.2,0.4,0.4,0.6
		c0.3,0.5,0.6,1,0.9,1.6c0.1,0.2,0.2,0.4,0.3,0.7c0.3,0.5,0.5,1.1,0.8,1.7c0.1,0.2,0.2,0.5,0.3,0.7c0.2,0.6,0.5,1.2,0.7,1.8
		c0.1,0.2,0.1,0.4,0.2,0.6c0.2,0.6,0.4,1.3,0.6,2c0,0.2,0.1,0.3,0.1,0.5c0.2,0.7,0.3,1.4,0.4,2.1c0,0.1,0,0.2,0.1,0.3
		c0.1,0.8,0.2,1.5,0.3,2.3c0,0.1,0,0.2,0,0.4c0.1,0.8,0.1,1.6,0.1,2.4c0,0.1,0,0.3,0,0.4c0,0.8,0,1.6-0.1,2.4c0,0.1,0,0.2,0,0.4
		c-0.1,0.8-0.1,1.6-0.3,2.5c0,0.1,0,0.2-0.1,0.3c-0.1,0.8-0.3,1.7-0.5,2.5c0,0.1,0,0.2-0.1,0.3c-0.2,0.9-0.4,1.8-0.7,2.6
		c-0.2,0.5-0.3,1.1-0.5,1.6c-2.7,7.8-7.9,14.3-14.3,17.8c-0.2,0.1-0.4,0.2-0.6,0.3c-0.4,0.2-0.9,0.5-1.3,0.7
		c-0.3,0.1-0.6,0.2-0.9,0.3c-0.4,0.2-0.8,0.3-1.2,0.5c-0.3,0.1-0.6,0.2-0.8,0.3c-0.4,0.1-0.9,0.2-1.3,0.3c-0.3,0.1-0.5,0.1-0.8,0.2
		c-0.5,0.1-1,0.2-1.5,0.2c-0.2,0-0.4,0.1-0.6,0.1c-0.7,0.1-1.4,0.1-2.1,0.1c-0.1,0-0.2,0-0.4,0c-0.6,0-1.1,0-1.6-0.1
		c-0.3,0-0.6-0.1-0.9-0.1c-1.2-0.2-2.5-0.5-3.7-0.9C102.4,118.1,95.9,101,100.7,84.8z M126.4,125.8c0.3-0.1,0.6-0.1,0.9-0.2
		c0.5-0.1,0.9-0.2,1.4-0.4c0.1,0,0.2-0.1,0.3-0.1l2,0.7c-1.7,0.2-3.4,0.2-5.1,0C126,125.8,126.2,125.8,126.4,125.8z M135,124.9
		l-2.8-1c0.3-0.2,0.7-0.3,1-0.5c0.2-0.1,0.5-0.2,0.7-0.3c0.8-0.4,1.5-0.9,2.2-1.4l3.3,1.2c-0.2,0.1-0.3,0.2-0.5,0.3
		C137.7,123.8,136.4,124.4,135,124.9z"/>
	<g>
		<path d="M134.1,90.3c2.5-7.1,0-11.8-6.9-12.9c0-0.9-0.2-1.6-0.3-2.7c-0.3-1.6-1.2-2.4-2.5-2c-1.1,0.3-1.9,1.5-1.8,3
			c0.1,1.1,0.2,1.8,0.3,2.7c-1,0.2-2,0.4-2.9,0.5c-0.1-1.1-0.2-1.8-0.3-2.7c-0.3-1.6-1.3-2.5-2.6-2.2c-1.3,0.4-1.9,1.5-1.7,3.1
			c0,0.9,0.2,1.8,0.3,2.7c-1,0.2-1.6,0.4-2.5,0.5c-1.3,0.4-2.1,1.4-1.9,2.8c0.2,1.2,1.2,2,2.4,1.9c0.9-0.1,1.6-0.4,2.5-0.5
			c0.8,7.3,1.8,14.2,2.7,21.4c-1,0.2-1.6,0.4-2.5,0.5c-1.3,0.4-2.1,1.4-1.9,2.8c0.2,1.2,1.2,2,2.4,1.9c0.9-0.1,1.6-0.4,2.4-0.4
			c0.1,0.2,0.1,0.3,0.1,0.3c0.1,1.1,0.3,1.9,0.4,3c0.2,1.4,1.3,2.1,2.4,1.9c1.1-0.3,1.9-1.5,1.9-2.8c-0.1-1.1-0.2-2.2-0.3-3.1
			c1-0.2,2-0.4,2.9-0.5c0.1,1.1,0.2,2.2,0.3,3.3c0.2,1.4,1.3,2.1,2.4,1.9c1.1-0.3,1.9-1.5,1.9-2.8c-0.1-1.1-0.2-2.2-0.3-3.3
			c4.4-0.8,7.5-3.2,8.1-8C140,95.2,138,91.9,134.1,90.3z M120.9,83.8c2.1-0.5,4.5-1.3,6.8-1.5c1.8-0.1,3,1.5,3.2,3.5
			c0.1,1.9-1,3.9-2.8,4.5c-2.1,0.6-4.3,1-6.4,1.5C121.5,89.2,121.2,86.5,120.9,83.8z M132,103.1c-2.8,0.7-5.6,1.3-8.6,1.9
			c-0.3-2.9-0.7-5.4-1-8.3c0.7,0,1.3-0.4,2-0.4c2.1-0.5,4.4-1.1,6.5-1.3c2.1-0.5,4,0.9,4.3,3.3C135.6,100.4,134,102.7,132,103.1z"/>
		<path class="st3" d="M133.2,89.3c2.5-7.1,0-11.8-6.9-12.9c0-0.9-0.2-1.6-0.3-2.7c-0.3-1.6-1.2-2.4-2.5-2c-1.1,0.3-1.9,1.5-1.8,3
			c0.1,1.1,0.2,1.8,0.3,2.7c-1,0.2-2,0.4-2.9,0.5c-0.1-1.1-0.2-1.8-0.3-2.7c-0.3-1.6-1.3-2.5-2.6-2.2c-1.3,0.4-1.9,1.5-1.7,3.1
			c0,0.9,0.2,1.8,0.3,2.7c-1,0.2-1.6,0.4-2.5,0.5c-1.3,0.4-2.1,1.4-1.9,2.8c0.2,1.2,1.2,2,2.4,1.9c0.9-0.1,1.6-0.4,2.5-0.5
			c0.8,7.3,1.8,14.2,2.7,21.4c-1,0.2-1.6,0.4-2.5,0.5c-1.3,0.4-2.1,1.4-1.9,2.8c0.2,1.2,1.2,2,2.4,1.9c0.9-0.1,1.6-0.4,2.4-0.4
			c0.1,0.2,0.1,0.3,0.1,0.3c0.1,1.1,0.3,1.9,0.4,3c0.2,1.4,1.3,2.1,2.4,1.9s1.9-1.5,1.9-2.8c-0.1-1.1-0.2-2.2-0.3-3.1
			c1-0.2,2-0.4,2.9-0.5c0.1,1.1,0.2,2.2,0.3,3.3c0.2,1.4,1.3,2.1,2.4,1.9c1.1-0.3,1.9-1.5,1.9-2.8c-0.1-1.1-0.2-2.2-0.3-3.3
			c4.4-0.8,7.5-3.2,8.1-8C139.1,94.1,137.1,90.8,133.2,89.3z M120.1,82.8c2.1-0.5,4.5-1.3,6.8-1.5c1.8-0.1,3,1.5,3.2,3.5
			c0.1,1.9-1,3.9-2.8,4.5c-2.1,0.6-4.3,1-6.4,1.5C120.6,88.2,120.3,85.5,120.1,82.8z M131.1,102.1c-2.8,0.7-5.6,1.3-8.6,1.9
			c-0.3-2.9-0.7-5.4-1-8.3c0.7,0,1.3-0.4,2-0.4c2.1-0.5,4.4-1.1,6.5-1.3c2.1-0.5,4,0.9,4.3,3.3C134.7,99.4,133.1,101.7,131.1,102.1z
			"/>
	</g>
</g>
</svg>
